<mxfile host="app.diagrams.net" modified="2022-07-26T06:36:43.924Z" agent="5.0 (Windows NT 10.0; Win64; x64) AppleWebKit/537.36 (KHTML, like Gecko) Chrome/103.0.0.0 Safari/537.36" etag="_9kKi3PsHUFkRquFVtdw" version="20.1.3" type="github">
  <diagram id="-kH73spSBtR8VED7zcd6" name="第 1 页">
    <mxGraphModel dx="1422" dy="-693" grid="1" gridSize="10" guides="1" tooltips="1" connect="1" arrows="1" fold="1" page="1" pageScale="1" pageWidth="413" pageHeight="291" math="0" shadow="0">
      <root>
        <mxCell id="0" />
        <mxCell id="1" parent="0" />
        <mxCell id="dhpCgIOlbi4Pp2pvdTcR-1" value="" style="rounded=0;whiteSpace=wrap;html=1;fillColor=#f5f5f5;fontColor=#0D47A1;strokeColor=#666666;fontStyle=0;fontFamily=Courier New;" vertex="1" parent="1">
          <mxGeometry x="130" y="1650" width="940" height="580" as="geometry" />
        </mxCell>
        <mxCell id="dhpCgIOlbi4Pp2pvdTcR-2" value="" style="rounded=1;whiteSpace=wrap;html=1;fontFamily=Courier New;fontSize=16;fillColor=#E8E8FA;strokeColor=#9673a6;fontColor=#0D47A1;fontStyle=0" vertex="1" parent="1">
          <mxGeometry x="295" y="2140" width="760" height="70" as="geometry" />
        </mxCell>
        <mxCell id="dhpCgIOlbi4Pp2pvdTcR-3" value="&lt;font style=&quot;font-size: 17px;&quot;&gt;药品&lt;/font&gt;" style="rounded=1;whiteSpace=wrap;html=1;fontFamily=Courier New;fontSize=16;gradientColor=none;fillColor=#C8E6C9;fontColor=#0D47A1;fontStyle=0" vertex="1" parent="1">
          <mxGeometry x="495" y="2150" width="80" height="50" as="geometry" />
        </mxCell>
        <mxCell id="dhpCgIOlbi4Pp2pvdTcR-4" value="&lt;font style=&quot;font-size: 17px;&quot;&gt;处方&lt;/font&gt;" style="rounded=1;whiteSpace=wrap;html=1;fontFamily=Courier New;fontSize=16;fillColor=#C8E6C9;fontColor=#0D47A1;fontStyle=0" vertex="1" parent="1">
          <mxGeometry x="585" y="2150" width="80" height="50" as="geometry" />
        </mxCell>
        <mxCell id="dhpCgIOlbi4Pp2pvdTcR-5" value="&lt;font style=&quot;font-size: 17px;&quot;&gt;订单&lt;/font&gt;" style="rounded=1;whiteSpace=wrap;html=1;fontFamily=Courier New;fontSize=16;fillColor=#C8E6C9;fontColor=#0D47A1;fontStyle=0" vertex="1" parent="1">
          <mxGeometry x="675" y="2150" width="80" height="50" as="geometry" />
        </mxCell>
        <mxCell id="dhpCgIOlbi4Pp2pvdTcR-6" value="&lt;font style=&quot;font-size: 17px;&quot;&gt;分账&lt;/font&gt;" style="rounded=1;whiteSpace=wrap;html=1;fontFamily=Courier New;fontSize=16;fillColor=#C8E6C9;fontColor=#0D47A1;fontStyle=0" vertex="1" parent="1">
          <mxGeometry x="765" y="2150" width="80" height="50" as="geometry" />
        </mxCell>
        <mxCell id="dhpCgIOlbi4Pp2pvdTcR-7" value="&lt;font style=&quot;font-size: 17px;&quot;&gt;账户&lt;/font&gt;" style="rounded=1;whiteSpace=wrap;html=1;fontFamily=Courier New;fontSize=16;fillColor=#C8E6C9;fontColor=#0D47A1;fontStyle=0" vertex="1" parent="1">
          <mxGeometry x="862" y="2150" width="80" height="50" as="geometry" />
        </mxCell>
        <mxCell id="dhpCgIOlbi4Pp2pvdTcR-8" value="&lt;font style=&quot;font-size: 17px;&quot;&gt;消息&lt;/font&gt;" style="rounded=1;whiteSpace=wrap;html=1;fontFamily=Courier New;fontSize=16;fillColor=#C8E6C9;fontColor=#0D47A1;fontStyle=0" vertex="1" parent="1">
          <mxGeometry x="955" y="2150" width="80" height="50" as="geometry" />
        </mxCell>
        <mxCell id="dhpCgIOlbi4Pp2pvdTcR-9" value="&lt;font style=&quot;font-size: 17px;&quot;&gt;业务层&lt;/font&gt;" style="rounded=1;whiteSpace=wrap;html=1;fontFamily=Courier New;fontSize=16;fillColor=#CCCCFF;gradientColor=none;fontColor=#0D47A1;fontStyle=0" vertex="1" parent="1">
          <mxGeometry x="140" y="1890" width="130" height="80" as="geometry" />
        </mxCell>
        <mxCell id="dhpCgIOlbi4Pp2pvdTcR-10" value="" style="rounded=1;whiteSpace=wrap;html=1;fontFamily=Courier New;fontSize=16;fillColor=#CCCCFF;gradientColor=none;fontColor=#0D47A1;fontStyle=0" vertex="1" parent="1">
          <mxGeometry x="290" y="1890" width="760" height="80" as="geometry" />
        </mxCell>
        <mxCell id="dhpCgIOlbi4Pp2pvdTcR-11" value="&lt;font style=&quot;font-size: 17px;&quot;&gt;医生服务&lt;/font&gt;" style="rounded=1;whiteSpace=wrap;html=1;fontFamily=Courier New;fontSize=16;fillColor=#fff2cc;strokeColor=#d6b656;gradientColor=#ffd966;fontColor=#0D47A1;fontStyle=0" vertex="1" parent="1">
          <mxGeometry x="620" y="1900" width="120" height="60" as="geometry" />
        </mxCell>
        <mxCell id="dhpCgIOlbi4Pp2pvdTcR-12" value="&lt;font style=&quot;font-size: 17px;&quot;&gt;代理商服务&lt;/font&gt;" style="rounded=1;whiteSpace=wrap;html=1;fontFamily=Courier New;fontSize=16;fillColor=#fff2cc;strokeColor=#d6b656;gradientColor=#ffd966;fontColor=#0D47A1;fontStyle=0" vertex="1" parent="1">
          <mxGeometry x="320" y="1900" width="120" height="60" as="geometry" />
        </mxCell>
        <mxCell id="dhpCgIOlbi4Pp2pvdTcR-13" value="&lt;font style=&quot;font-size: 17px;&quot;&gt;经纪人服务&lt;/font&gt;" style="rounded=1;whiteSpace=wrap;html=1;fontFamily=Courier New;fontSize=16;fillColor=#fff2cc;strokeColor=#d6b656;gradientColor=#ffd966;fontColor=#0D47A1;fontStyle=0" vertex="1" parent="1">
          <mxGeometry x="470" y="1900" width="120" height="60" as="geometry" />
        </mxCell>
        <mxCell id="dhpCgIOlbi4Pp2pvdTcR-14" value="&lt;font style=&quot;font-size: 17px;&quot;&gt;患者服务&lt;/font&gt;" style="rounded=1;whiteSpace=wrap;html=1;fontFamily=Courier New;fontSize=16;fillColor=#fff2cc;strokeColor=#d6b656;gradientColor=#ffd966;fontColor=#0D47A1;fontStyle=0" vertex="1" parent="1">
          <mxGeometry x="770" y="1900" width="120" height="60" as="geometry" />
        </mxCell>
        <mxCell id="dhpCgIOlbi4Pp2pvdTcR-15" value="&lt;font style=&quot;font-size: 17px;&quot;&gt;应用层&lt;/font&gt;" style="rounded=1;whiteSpace=wrap;html=1;fontFamily=Courier New;fontSize=16;fillColor=#97D077;gradientColor=none;fontColor=#0D47A1;fontStyle=0" vertex="1" parent="1">
          <mxGeometry x="140" y="1790" width="130" height="80" as="geometry" />
        </mxCell>
        <mxCell id="dhpCgIOlbi4Pp2pvdTcR-16" value="" style="rounded=1;whiteSpace=wrap;html=1;fontFamily=Courier New;fontSize=16;fillColor=#97D077;gradientColor=none;fontColor=#0D47A1;fontStyle=0" vertex="1" parent="1">
          <mxGeometry x="290" y="1790" width="760" height="80" as="geometry" />
        </mxCell>
        <mxCell id="dhpCgIOlbi4Pp2pvdTcR-17" value="&lt;font style=&quot;font-size: 17px;&quot;&gt;代理商 &lt;br&gt;PC 端&lt;/font&gt;" style="rounded=1;whiteSpace=wrap;html=1;fontFamily=Courier New;fontSize=16;fillColor=#cce5ff;strokeColor=#36393d;fontColor=#0D47A1;fontStyle=0" vertex="1" parent="1">
          <mxGeometry x="320" y="1800" width="120" height="60" as="geometry" />
        </mxCell>
        <mxCell id="dhpCgIOlbi4Pp2pvdTcR-18" value="&lt;font style=&quot;font-size: 17px;&quot;&gt;经纪人APP&lt;/font&gt;" style="rounded=1;whiteSpace=wrap;html=1;fontFamily=Courier New;fontSize=16;fillColor=#cce5ff;strokeColor=#36393d;fontColor=#0D47A1;fontStyle=0" vertex="1" parent="1">
          <mxGeometry x="480" y="1800" width="120" height="60" as="geometry" />
        </mxCell>
        <mxCell id="dhpCgIOlbi4Pp2pvdTcR-19" value="&lt;font style=&quot;font-size: 17px;&quot;&gt;医生端APP&lt;/font&gt;" style="rounded=1;whiteSpace=wrap;html=1;fontFamily=Courier New;fontSize=16;fillColor=#cce5ff;strokeColor=#36393d;fontColor=#0D47A1;fontStyle=0" vertex="1" parent="1">
          <mxGeometry x="630" y="1800" width="120" height="60" as="geometry" />
        </mxCell>
        <mxCell id="dhpCgIOlbi4Pp2pvdTcR-20" value="&lt;font style=&quot;font-size: 17px;&quot;&gt;患者端小程序&lt;/font&gt;" style="rounded=1;whiteSpace=wrap;html=1;fontFamily=Courier New;fontSize=16;fillColor=#cce5ff;strokeColor=#36393d;fontColor=#0D47A1;fontStyle=0" vertex="1" parent="1">
          <mxGeometry x="780" y="1800" width="120" height="60" as="geometry" />
        </mxCell>
        <mxCell id="dhpCgIOlbi4Pp2pvdTcR-21" value="&lt;font style=&quot;font-size: 17px;&quot;&gt;运营层&lt;/font&gt;" style="rounded=1;whiteSpace=wrap;html=1;fontFamily=Courier New;fontSize=16;fillColor=#FFE0B2;gradientColor=none;fontColor=#0D47A1;fontStyle=0" vertex="1" parent="1">
          <mxGeometry x="140" y="1700" width="125.5" height="70" as="geometry" />
        </mxCell>
        <mxCell id="dhpCgIOlbi4Pp2pvdTcR-22" value="&lt;font style=&quot;font-size: 22px;&quot;&gt;服务运营&lt;/font&gt;" style="rounded=1;whiteSpace=wrap;html=1;fontFamily=Courier New;fontSize=16;fillColor=#FFE0B2;gradientColor=none;labelBorderColor=none;fontColor=#0D47A1;fontStyle=0" vertex="1" parent="1">
          <mxGeometry x="285.5" y="1700" width="760" height="70" as="geometry" />
        </mxCell>
        <mxCell id="dhpCgIOlbi4Pp2pvdTcR-23" value="&lt;font style=&quot;font-size: 19px;&quot;&gt;金柏河互联网医院&lt;/font&gt;" style="text;html=1;strokeColor=none;fillColor=none;align=center;verticalAlign=middle;whiteSpace=wrap;rounded=0;labelBorderColor=none;fontFamily=Courier New;fontSize=19;fontColor=#0D47A1;fontStyle=0" vertex="1" parent="1">
          <mxGeometry x="163" y="1670" width="157" height="20" as="geometry" />
        </mxCell>
        <mxCell id="dhpCgIOlbi4Pp2pvdTcR-24" value="&lt;font style=&quot;font-size: 17px;&quot;&gt;第三方合作&lt;/font&gt;" style="rounded=1;whiteSpace=wrap;html=1;fontFamily=Courier New;fontSize=16;fillColor=#fff2cc;strokeColor=#d6b656;gradientColor=#ffd966;fontColor=#0D47A1;fontStyle=0" vertex="1" parent="1">
          <mxGeometry x="910" y="1900" width="120" height="60" as="geometry" />
        </mxCell>
        <mxCell id="dhpCgIOlbi4Pp2pvdTcR-25" value="&lt;font style=&quot;font-size: 17px;&quot;&gt;H5&lt;/font&gt;" style="rounded=1;whiteSpace=wrap;html=1;fontFamily=Courier New;fontSize=16;fillColor=#cce5ff;strokeColor=#36393d;fontColor=#0D47A1;fontStyle=0" vertex="1" parent="1">
          <mxGeometry x="920" y="1800" width="120" height="60" as="geometry" />
        </mxCell>
        <mxCell id="dhpCgIOlbi4Pp2pvdTcR-26" value="&lt;font style=&quot;font-size: 17px;&quot;&gt;基础层&lt;/font&gt;" style="rounded=1;whiteSpace=wrap;html=1;fontFamily=Courier New;fontSize=16;fillColor=#E8E8FA;strokeColor=#9673a6;fontColor=#0D47A1;fontStyle=0" vertex="1" parent="1">
          <mxGeometry x="145" y="2140" width="129" height="70" as="geometry" />
        </mxCell>
        <mxCell id="dhpCgIOlbi4Pp2pvdTcR-27" value="&lt;font style=&quot;font-size: 17px;&quot;&gt;认证授权&lt;/font&gt;" style="rounded=1;whiteSpace=wrap;html=1;fontFamily=Courier New;fontSize=16;fillColor=#C8E6C9;fontColor=#0D47A1;fontStyle=0" vertex="1" parent="1">
          <mxGeometry x="305" y="2150" width="80" height="50" as="geometry" />
        </mxCell>
        <mxCell id="dhpCgIOlbi4Pp2pvdTcR-28" value="&lt;font style=&quot;font-size: 17px;&quot;&gt;用户&lt;/font&gt;" style="rounded=1;whiteSpace=wrap;html=1;fontFamily=Courier New;fontSize=16;fillColor=#C8E6C9;fontColor=#0D47A1;fontStyle=0" vertex="1" parent="1">
          <mxGeometry x="395" y="2150" width="80" height="50" as="geometry" />
        </mxCell>
        <mxCell id="dhpCgIOlbi4Pp2pvdTcR-29" value="安全层" style="rounded=1;whiteSpace=wrap;html=1;labelBorderColor=none;fontFamily=Courier New;fontSize=19;fontColor=#0D47A1;fillColor=#8DD990;gradientColor=none;" vertex="1" parent="1">
          <mxGeometry x="145" y="2070" width="130" height="60" as="geometry" />
        </mxCell>
        <mxCell id="dhpCgIOlbi4Pp2pvdTcR-30" value="" style="rounded=1;whiteSpace=wrap;html=1;labelBorderColor=none;fontFamily=Courier New;fontSize=19;fontColor=#0D47A1;fillColor=#8DD990;gradientColor=none;" vertex="1" parent="1">
          <mxGeometry x="295" y="2070" width="755" height="60" as="geometry" />
        </mxCell>
        <mxCell id="dhpCgIOlbi4Pp2pvdTcR-31" value="网络安全" style="rounded=1;whiteSpace=wrap;html=1;labelBorderColor=none;fontFamily=Courier New;fontSize=19;fontColor=#0D47A1;fillColor=#FFF9C4;gradientColor=none;" vertex="1" parent="1">
          <mxGeometry x="440" y="2080" width="110" height="40" as="geometry" />
        </mxCell>
        <mxCell id="dhpCgIOlbi4Pp2pvdTcR-32" value="数据安全" style="rounded=1;whiteSpace=wrap;html=1;labelBorderColor=none;fontFamily=Courier New;fontSize=19;fontColor=#0D47A1;fillColor=#FFF9C4;gradientColor=none;" vertex="1" parent="1">
          <mxGeometry x="740" y="2080" width="110" height="40" as="geometry" />
        </mxCell>
        <mxCell id="dhpCgIOlbi4Pp2pvdTcR-33" value="&lt;font style=&quot;font-size: 17px;&quot;&gt;业务层&lt;/font&gt;" style="rounded=1;whiteSpace=wrap;html=1;fontFamily=Courier New;fontSize=16;fillColor=#CCCCFF;gradientColor=none;fontColor=#0D47A1;fontStyle=0" vertex="1" parent="1">
          <mxGeometry x="140" y="1890" width="130" height="80" as="geometry" />
        </mxCell>
        <mxCell id="dhpCgIOlbi4Pp2pvdTcR-34" value="&lt;font style=&quot;font-size: 17px;&quot;&gt;代理商服务&lt;/font&gt;" style="rounded=1;whiteSpace=wrap;html=1;fontFamily=Courier New;fontSize=16;fillColor=#fff2cc;strokeColor=#d6b656;gradientColor=#ffd966;fontColor=#0D47A1;fontStyle=0" vertex="1" parent="1">
          <mxGeometry x="320" y="1900" width="120" height="60" as="geometry" />
        </mxCell>
        <mxCell id="dhpCgIOlbi4Pp2pvdTcR-35" value="&lt;font style=&quot;font-size: 17px;&quot;&gt;经纪人服务&lt;/font&gt;" style="rounded=1;whiteSpace=wrap;html=1;fontFamily=Courier New;fontSize=16;fillColor=#fff2cc;strokeColor=#d6b656;gradientColor=#ffd966;fontColor=#0D47A1;fontStyle=0" vertex="1" parent="1">
          <mxGeometry x="470" y="1900" width="120" height="60" as="geometry" />
        </mxCell>
        <mxCell id="dhpCgIOlbi4Pp2pvdTcR-36" value="&lt;font color=&quot;#0d47a1&quot;&gt;监管层&lt;/font&gt;" style="rounded=1;whiteSpace=wrap;html=1;labelBorderColor=none;fontFamily=Courier New;fontSize=19;fillColor=#cce5ff;strokeColor=#36393d;" vertex="1" parent="1">
          <mxGeometry x="144" y="1990" width="130" height="60" as="geometry" />
        </mxCell>
        <mxCell id="dhpCgIOlbi4Pp2pvdTcR-37" value="&lt;font color=&quot;#0d47a1&quot;&gt;合规性监管&lt;/font&gt;" style="rounded=1;whiteSpace=wrap;html=1;labelBorderColor=none;fontFamily=Courier New;fontSize=19;fillColor=#cce5ff;strokeColor=#36393d;" vertex="1" parent="1">
          <mxGeometry x="290" y="1990" width="760" height="60" as="geometry" />
        </mxCell>
        <mxCell id="dhpCgIOlbi4Pp2pvdTcR-38" value="&lt;font style=&quot;font-size: 17px;&quot;&gt;认证授权&lt;/font&gt;" style="rounded=1;whiteSpace=wrap;html=1;fontFamily=Courier New;fontSize=16;fillColor=#C8E6C9;fontColor=#0D47A1;fontStyle=0" vertex="1" parent="1">
          <mxGeometry x="305" y="2150" width="80" height="50" as="geometry" />
        </mxCell>
        <mxCell id="dhpCgIOlbi4Pp2pvdTcR-39" value="&lt;font style=&quot;font-size: 17px;&quot;&gt;用户&lt;/font&gt;" style="rounded=1;whiteSpace=wrap;html=1;fontFamily=Courier New;fontSize=16;fillColor=#C8E6C9;fontColor=#0D47A1;fontStyle=0" vertex="1" parent="1">
          <mxGeometry x="395" y="2150" width="80" height="50" as="geometry" />
        </mxCell>
        <mxCell id="dhpCgIOlbi4Pp2pvdTcR-40" value="&lt;font style=&quot;font-size: 17px;&quot;&gt;药品&lt;/font&gt;" style="rounded=1;whiteSpace=wrap;html=1;fontFamily=Courier New;fontSize=16;gradientColor=none;fillColor=#C8E6C9;fontColor=#0D47A1;fontStyle=0" vertex="1" parent="1">
          <mxGeometry x="495" y="2150" width="80" height="50" as="geometry" />
        </mxCell>
        <mxCell id="dhpCgIOlbi4Pp2pvdTcR-41" value="&lt;font style=&quot;font-size: 17px;&quot;&gt;处方&lt;/font&gt;" style="rounded=1;whiteSpace=wrap;html=1;fontFamily=Courier New;fontSize=16;fillColor=#C8E6C9;fontColor=#0D47A1;fontStyle=0" vertex="1" parent="1">
          <mxGeometry x="585" y="2150" width="80" height="50" as="geometry" />
        </mxCell>
        <mxCell id="dhpCgIOlbi4Pp2pvdTcR-42" value="&lt;font style=&quot;font-size: 17px;&quot;&gt;订单&lt;/font&gt;" style="rounded=1;whiteSpace=wrap;html=1;fontFamily=Courier New;fontSize=16;fillColor=#C8E6C9;fontColor=#0D47A1;fontStyle=0" vertex="1" parent="1">
          <mxGeometry x="675" y="2150" width="80" height="50" as="geometry" />
        </mxCell>
        <mxCell id="dhpCgIOlbi4Pp2pvdTcR-43" value="&lt;font style=&quot;font-size: 17px;&quot;&gt;分账&lt;/font&gt;" style="rounded=1;whiteSpace=wrap;html=1;fontFamily=Courier New;fontSize=16;fillColor=#C8E6C9;fontColor=#0D47A1;fontStyle=0" vertex="1" parent="1">
          <mxGeometry x="765" y="2150" width="80" height="50" as="geometry" />
        </mxCell>
        <mxCell id="dhpCgIOlbi4Pp2pvdTcR-44" value="&lt;font style=&quot;font-size: 17px;&quot;&gt;账户&lt;/font&gt;" style="rounded=1;whiteSpace=wrap;html=1;fontFamily=Courier New;fontSize=16;fillColor=#C8E6C9;fontColor=#0D47A1;fontStyle=0" vertex="1" parent="1">
          <mxGeometry x="862" y="2150" width="80" height="50" as="geometry" />
        </mxCell>
        <mxCell id="dhpCgIOlbi4Pp2pvdTcR-45" value="&lt;font color=&quot;#0d47a1&quot; style=&quot;font-size: 19px;&quot;&gt;&lt;b&gt;互联网医院系统架构示意图&lt;/b&gt;&lt;/font&gt;" style="text;html=1;strokeColor=none;fillColor=none;align=center;verticalAlign=middle;whiteSpace=wrap;rounded=0;" vertex="1" parent="1">
          <mxGeometry x="86.5" y="1581" width="310" height="39" as="geometry" />
        </mxCell>
      </root>
    </mxGraphModel>
  </diagram>
</mxfile>
